<svg width="30" height="30" viewBox="0 0 98 98" fill="none" xmlns="http://www.w3.org/2000/svg">
<path d="M88.8125 15.3125H9.1875C7.49355 15.3125 6.125 16.6811 6.125 18.375V33.6875H91.875V18.375C91.875 16.6811 90.5064 15.3125 88.8125 15.3125ZM6.125 79.625C6.125 81.3189 7.49355 82.6875 9.1875 82.6875H88.8125C90.5064 82.6875 91.875 81.3189 91.875 79.625V42.1094H6.125V79.625ZM61.5371 62.0156C61.5371 61.5945 61.8816 61.25 62.3027 61.25H78.0938C78.5148 61.25 78.8594 61.5945 78.8594 62.0156V68.9062C78.8594 69.3273 78.5148 69.6719 78.0938 69.6719H62.3027C61.8816 69.6719 61.5371 69.3273 61.5371 68.9062V62.0156Z" fill="#343A40"/>
</svg>

