<svg width="66" height="69" viewBox="0 0 66 69" fill="none" xmlns="http://www.w3.org/2000/svg">
<g filter="url(#filter0_d_6_167)">
<path d="M23.4667 19.4118C23.4667 18.5069 23.8319 17.6391 24.482 16.9993C25.1322 16.3595 26.0139 16 26.9333 16H37.3333C38.2528 16 39.1345 16.3595 39.7846 16.9993C40.4348 17.6391 40.8 18.5069 40.8 19.4118V28.2943C39.1671 27.8381 37.4401 27.8192 35.7973 28.2396C34.1545 28.66 32.6555 29.5044 31.4553 30.6856C30.255 31.8669 29.397 33.3421 28.9698 34.9589C28.5427 36.5756 28.5619 38.2753 29.0255 39.8824H26.9333C26.0139 39.8824 25.1322 39.5229 24.482 38.8831C23.8319 38.2432 23.4667 37.3754 23.4667 36.4706V19.4118ZM30.8455 43.2941C30.404 42.7679 30.0221 42.1959 29.7067 41.5882H26.0667C24.9174 41.5882 23.8152 41.1389 23.0025 40.3391C22.1899 39.5393 21.7333 38.4546 21.7333 37.3235V19.8689C21.2063 20.1684 20.7687 20.5991 20.4645 21.1177C20.1602 21.6363 20 22.2247 20 22.8235V37.3235C20 38.907 20.6392 40.4257 21.7769 41.5454C22.9146 42.6651 24.4577 43.2941 26.0667 43.2941H30.8455ZM46 37.3235C46 39.3595 45.1782 41.312 43.7154 42.7516C42.2526 44.1912 40.2687 45 38.2 45C36.1313 45 34.1474 44.1912 32.6846 42.7516C31.2218 41.312 30.4 39.3595 30.4 37.3235C30.4 35.2876 31.2218 33.3351 32.6846 31.8954C34.1474 30.4558 36.1313 29.6471 38.2 29.6471C40.2687 29.6471 42.2526 30.4558 43.7154 31.8954C45.1782 33.3351 46 35.2876 46 37.3235ZM39.0667 33.9118C39.0667 33.6856 38.9754 33.4686 38.8128 33.3086C38.6503 33.1487 38.4299 33.0588 38.2 33.0588C37.9701 33.0588 37.7497 33.1487 37.5872 33.3086C37.4246 33.4686 37.3333 33.6856 37.3333 33.9118V36.4706H34.7333C34.5035 36.4706 34.283 36.5604 34.1205 36.7204C33.958 36.8804 33.8667 37.0973 33.8667 37.3235C33.8667 37.5497 33.958 37.7667 34.1205 37.9266C34.283 38.0866 34.5035 38.1765 34.7333 38.1765H37.3333V40.7353C37.3333 40.9615 37.4246 41.1785 37.5872 41.3384C37.7497 41.4984 37.9701 41.5882 38.2 41.5882C38.4299 41.5882 38.6503 41.4984 38.8128 41.3384C38.9754 41.1785 39.0667 40.9615 39.0667 40.7353V38.1765H41.6667C41.8965 38.1765 42.117 38.0866 42.2795 37.9266C42.442 37.7667 42.5333 37.5497 42.5333 37.3235C42.5333 37.0973 42.442 36.8804 42.2795 36.7204C42.117 36.5604 41.8965 36.4706 41.6667 36.4706H39.0667V33.9118Z" fill="white"/>
</g>
<defs>
<filter id="filter0_d_6_167" x="0" y="0" width="66" height="69" filterUnits="userSpaceOnUse" color-interpolation-filters="sRGB">
<feFlood flood-opacity="0" result="BackgroundImageFix"/>
<feColorMatrix in="SourceAlpha" type="matrix" values="0 0 0 0 0 0 0 0 0 0 0 0 0 0 0 0 0 0 127 0" result="hardAlpha"/>
<feOffset dy="4"/>
<feGaussianBlur stdDeviation="10"/>
<feComposite in2="hardAlpha" operator="out"/>
<feColorMatrix type="matrix" values="0 0 0 0 0 0 0 0 0 0 0 0 0 0 0 0 0 0 0.25 0"/>
<feBlend mode="normal" in2="BackgroundImageFix" result="effect1_dropShadow_6_167"/>
<feBlend mode="normal" in="SourceGraphic" in2="effect1_dropShadow_6_167" result="shape"/>
</filter>
</defs>
</svg>
