<svg width="58" height="44" viewBox="0 0 58 44" fill="none" xmlns="http://www.w3.org/2000/svg">
<path d="M49.0994 3.85567C45.4019 2.18817 41.4385 0.955674 37.2939 0.254841C37.257 0.247755 37.2188 0.252321 37.1846 0.267908C37.1504 0.283496 37.1219 0.309333 37.103 0.341841C36.5955 1.23359 36.03 2.39601 35.6337 3.31434C31.238 2.65758 26.7691 2.65758 22.3734 3.31434C21.932 2.29659 21.4342 1.30422 20.8824 0.341841C20.8637 0.308932 20.8354 0.282511 20.8012 0.266103C20.7671 0.249694 20.7288 0.244079 20.6914 0.250007C16.5493 0.950841 12.5859 2.18334 8.88602 3.85326C8.85419 3.86661 8.82721 3.88938 8.80869 3.91851C1.28802 14.9748 -0.773393 25.7579 0.239191 36.4058C0.242008 36.4318 0.250103 36.4571 0.262983 36.4799C0.275862 36.5028 0.293257 36.5228 0.314107 36.5387C4.70372 39.7345 9.59976 42.1691 14.7972 43.7403C14.8334 43.7515 14.8722 43.7515 14.9084 43.7403C14.9446 43.729 14.9766 43.7072 15.0002 43.6775C16.1186 42.1818 17.1097 40.5949 17.963 38.9336C17.9749 38.9109 17.9817 38.8859 17.983 38.8603C17.9844 38.8347 17.9802 38.8092 17.9708 38.7853C17.9614 38.7615 17.947 38.74 17.9286 38.7222C17.9101 38.7044 17.8881 38.6908 17.8639 38.6823C16.3028 38.0943 14.7901 37.3849 13.3399 36.5604C13.3139 36.5455 13.2919 36.5244 13.276 36.499C13.2601 36.4735 13.2508 36.4445 13.2489 36.4146C13.247 36.3846 13.2525 36.3547 13.2651 36.3274C13.2776 36.3002 13.2967 36.2764 13.3206 36.2583C13.6251 36.0336 13.9296 35.7992 14.2196 35.5648C14.2457 35.5437 14.2772 35.5303 14.3104 35.526C14.3437 35.5217 14.3775 35.5268 14.4081 35.5406C23.8984 39.8036 34.1764 39.8036 43.5555 35.5406C43.5862 35.526 43.6203 35.5202 43.6541 35.5241C43.6879 35.5279 43.7199 35.5412 43.7464 35.5623C44.0364 35.7992 44.3385 36.0336 44.6454 36.2583C44.6696 36.276 44.689 36.2995 44.7019 36.3265C44.7149 36.3535 44.7209 36.3834 44.7194 36.4133C44.718 36.4432 44.7092 36.4723 44.6937 36.498C44.6783 36.5237 44.6567 36.5451 44.6309 36.5604C43.1858 37.3918 41.6826 38.095 40.1045 38.6798C40.0803 38.6886 40.0582 38.7025 40.0398 38.7205C40.0213 38.7385 40.0069 38.7603 39.9975 38.7843C39.9882 38.8083 39.984 38.834 39.9854 38.8598C39.9867 38.8855 39.9936 38.9107 40.0054 38.9336C40.8754 40.5938 41.8711 42.1743 42.9659 43.6751C42.9886 43.7059 43.0203 43.7289 43.0567 43.741C43.093 43.7531 43.1322 43.7537 43.1689 43.7428C48.3752 42.1759 53.2792 39.7402 57.6737 36.5387C57.6951 36.5237 57.7131 36.5043 57.7265 36.4818C57.7398 36.4593 57.7482 36.4342 57.751 36.4082C58.9594 24.0977 55.7259 13.4015 49.1743 3.92334C49.1582 3.89254 49.1316 3.86853 49.0994 3.85567ZM19.3816 29.9218C16.5251 29.9218 14.1689 27.3384 14.1689 24.1702C14.1689 20.9995 16.4792 18.4185 19.3816 18.4185C22.3058 18.4185 24.6403 21.0213 24.5944 24.1702C24.5944 27.3408 22.284 29.9218 19.3816 29.9218V29.9218ZM38.6545 29.9218C35.7956 29.9218 33.4418 27.3384 33.4418 24.1702C33.4418 20.9995 35.7497 18.4185 38.6545 18.4185C41.5787 18.4185 43.9132 21.0213 43.8673 24.1702C43.8673 27.3408 41.5811 29.9218 38.6545 29.9218V29.9218Z" fill="white"/>
</svg>
