<svg width="46" height="46" viewBox="0 0 46 46" fill="none" xmlns="http://www.w3.org/2000/svg">
<path d="M23 15.4498C18.8426 15.4498 15.4498 18.8426 15.4498 23C15.4498 27.1574 18.8426 30.5502 23 30.5502C27.1574 30.5502 30.5502 27.1574 30.5502 23C30.5502 18.8426 27.1574 15.4498 23 15.4498ZM45.6449 23C45.6449 19.8734 45.6733 16.7752 45.4977 13.6543C45.3221 10.0293 44.4951 6.81211 41.8444 4.16133C39.1879 1.50488 35.9764 0.683595 32.3514 0.508009C29.2248 0.332423 26.1266 0.360743 23.0057 0.360743C19.8791 0.360743 16.7809 0.332423 13.66 0.508009C10.035 0.683595 6.8178 1.51055 4.16702 4.16133C1.51057 6.81777 0.689282 10.0293 0.513696 13.6543C0.33811 16.7809 0.366431 19.8791 0.366431 23C0.366431 26.1209 0.33811 29.2248 0.513696 32.3457C0.689282 35.9707 1.51624 39.1879 4.16702 41.8387C6.82346 44.4951 10.035 45.3164 13.66 45.492C16.7865 45.6676 19.8848 45.6393 23.0057 45.6393C26.1322 45.6393 29.2305 45.6676 32.3514 45.492C35.9764 45.3164 39.1936 44.4895 41.8444 41.8387C44.5008 39.1822 45.3221 35.9707 45.4977 32.3457C45.6789 29.2248 45.6449 26.1266 45.6449 23V23ZM23 34.617C16.5713 34.617 11.383 29.4287 11.383 23C11.383 16.5713 16.5713 11.383 23 11.383C29.4287 11.383 34.617 16.5713 34.617 23C34.617 29.4287 29.4287 34.617 23 34.617ZM35.0928 13.6203C33.5918 13.6203 32.3797 12.4082 32.3797 10.9072C32.3797 9.40625 33.5918 8.19414 35.0928 8.19414C36.5938 8.19414 37.8059 9.40625 37.8059 10.9072C37.8063 11.2636 37.7365 11.6166 37.6003 11.946C37.4641 12.2754 37.2643 12.5746 37.0122 12.8267C36.7602 13.0787 36.461 13.2785 36.1316 13.4147C35.8022 13.5509 35.4492 13.6208 35.0928 13.6203V13.6203Z" fill="white"/>
</svg>
