<svg width="43" height="33" viewBox="0 0 43 33" fill="none" xmlns="http://www.w3.org/2000/svg">
<path d="M18.8125 32.625C18.8125 32.625 16.125 32.625 16.125 29.9375C16.125 27.25 18.8125 19.1875 29.5625 19.1875C40.3125 19.1875 43 27.25 43 29.9375C43 32.625 40.3125 32.625 40.3125 32.625H18.8125ZM29.5625 16.5C31.7008 16.5 33.7515 15.6506 35.2635 14.1385C36.7756 12.6265 37.625 10.5758 37.625 8.4375C37.625 6.29919 36.7756 4.24846 35.2635 2.73645C33.7515 1.22444 31.7008 0.375 29.5625 0.375C27.4242 0.375 25.3735 1.22444 23.8615 2.73645C22.3494 4.24846 21.5 6.29919 21.5 8.4375C21.5 10.5758 22.3494 12.6265 23.8615 14.1385C25.3735 15.6506 27.4242 16.5 29.5625 16.5Z" fill="#53A700"/>
<path fill-rule="evenodd" clip-rule="evenodd" d="M14.018 32.625C13.6196 31.786 13.4209 30.8661 13.4375 29.9375C13.4375 26.2959 15.265 22.5469 18.6405 19.94C16.9557 19.4209 15.2004 19.167 13.4375 19.1875C2.6875 19.1875 0 27.25 0 29.9375C0 32.625 2.6875 32.625 2.6875 32.625H14.018Z" fill="#53A700"/>
<path d="M12.0938 16.5C13.8757 16.5 15.5846 15.7921 16.8446 14.5321C18.1046 13.2721 18.8125 11.5632 18.8125 9.78125C18.8125 7.99933 18.1046 6.29039 16.8446 5.03038C15.5846 3.77037 13.8757 3.0625 12.0938 3.0625C10.3118 3.0625 8.60289 3.77037 7.34288 5.03038C6.08287 6.29039 5.375 7.99933 5.375 9.78125C5.375 11.5632 6.08287 13.2721 7.34288 14.5321C8.60289 15.7921 10.3118 16.5 12.0938 16.5Z" fill="#53A700"/>
</svg>
