<svg width="114" height="34" viewBox="0 0 114 34" fill="none" xmlns="http://www.w3.org/2000/svg">
<g filter="url(#filter0_d_33_9)">
<path d="M0 -4.76837e-07H8V20H16V-4.76837e-07H24V24H20V28H16V32H8V28H4V24H0V-4.76837e-07ZM33.7109 -4.76837e-07H41.7109V32H33.7109V-4.76837e-07ZM75.7188 24H59.7188V32H51.7188V-4.76837e-07H75.7188V24ZM67.7188 16V8H59.7188V16H67.7188ZM94.2891 8H102.289V16H110.289V24H102.289V32H94.2891V24H86.2891V16H94.2891V8Z" fill="url(#paint0_linear_33_9)"/>
</g>
<defs>
<filter id="filter0_d_33_9" x="0" y="0" width="113.289" height="34" filterUnits="userSpaceOnUse" color-interpolation-filters="sRGB">
<feFlood flood-opacity="0" result="BackgroundImageFix"/>
<feColorMatrix in="SourceAlpha" type="matrix" values="0 0 0 0 0 0 0 0 0 0 0 0 0 0 0 0 0 0 127 0" result="hardAlpha"/>
<feOffset dx="3" dy="2"/>
<feComposite in2="hardAlpha" operator="out"/>
<feColorMatrix type="matrix" values="0 0 0 0 0 0 0 0 0 0 0 0 0 0 0 0 0 0 0.2 0"/>
<feBlend mode="normal" in2="BackgroundImageFix" result="effect1_dropShadow_33_9"/>
<feBlend mode="normal" in="SourceGraphic" in2="effect1_dropShadow_33_9" result="shape"/>
</filter>
<linearGradient id="paint0_linear_33_9" x1="0" y1="0" x2="86.5426" y2="53.1894" gradientUnits="userSpaceOnUse">
<stop stop-color="#6F26CC"/>
<stop offset="0.544792" stop-color="#3223D6"/>
<stop offset="1" stop-color="#2079E1"/>
</linearGradient>
</defs>
</svg>
