<svg width="64" height="64" viewBox="0 0 64 64" fill="none" xmlns="http://www.w3.org/2000/svg">
<path d="M32.0002 2C18.9002 2 7.8002 10.4 3.7002 22H60.3002C56.2002 10.4 45.1002 2 32.0002 2Z" fill="#F9F9F9"/>
<path d="M32.0002 62C45.1002 62 56.2002 53.7 60.3002 42H3.7002C7.8002 53.7 18.9002 62 32.0002 62Z" fill="#ED4C5C"/>
<path d="M3.7 22C2.6 25.1 2 28.5 2 32C2 35.5 2.6 38.9 3.7 42H60.3C61.4 38.9 62 35.5 62 32C62 28.5 61.4 25.1 60.3 22H3.7Z" fill="#428BC1"/>
<path d="M33.9 19H14V32.8C14 42 23.6 44.8 24 45C24.4 44.8 34 42 34 32.8V19H33.9Z" fill="#F9F9F9"/>
<path d="M16 21V32.9C16 38.5 20.3 41.5 24 43C27.7 41.5 32 38.5 32 32.9V21H16Z" fill="#ED4C5C"/>
<path d="M23 23H25V37H23V23Z" fill="#F9F9F9"/>
<path d="M19 29H29V31H19V29ZM21 25H27V27H21V25Z" fill="#F9F9F9"/>
<path d="M23.9999 35C22.6999 35 21.4999 35.6 20.7999 36.6C20.2999 36.2 19.6999 36 18.9999 36C18.1999 36 17.3999 36.3 16.8999 36.9C18.2999 40 21.2999 41.9 23.9999 43C26.6999 41.9 29.6999 40 31.0999 36.9C30.5999 36.3 29.7999 36 28.9999 36C28.2999 36 27.6999 36.2 27.1999 36.6C26.4999 35.6 25.2999 35 23.9999 35Z" fill="#428BC1"/>
</svg>
