<svg width="38" height="44" viewBox="0 0 38 44" fill="none" xmlns="http://www.w3.org/2000/svg">
<path d="M30.1167 7.065C30.1167 7.065 31.3492 8.27333 30.1167 7.065C28.4647 5.17909 27.5543 2.75713 27.555 0.25H20.0875V30.2167C20.0299 31.8383 19.3453 33.3743 18.1778 34.5013C17.0103 35.6282 15.451 36.2581 13.8283 36.2583C10.3967 36.2583 7.54501 33.455 7.54501 29.975C7.54501 25.8183 11.5567 22.7008 15.6892 23.9817V16.345C7.35168 15.2333 0.0533447 21.71 0.0533447 29.975C0.0533447 38.0225 6.72335 43.75 13.8042 43.75C21.3925 43.75 27.555 37.5875 27.555 29.975V14.7742C30.5831 16.9488 34.2186 18.1156 37.9467 18.1092V10.6417C37.9467 10.6417 33.4033 10.8592 30.1167 7.065Z" fill="white"/>
</svg>
