<svg width="170" height="90" viewBox="0 0 170 90" fill="none" xmlns="http://www.w3.org/2000/svg">
<g filter="url(#filter0_d_6_151)">
<path fill-rule="evenodd" clip-rule="evenodd" d="M33.5417 16C26.0628 16 20 22.0502 20 29.5135V52.4865C20 59.9498 26.0628 66 33.5417 66H136.458C143.937 66 150 59.9498 150 52.4865V29.5135C150 22.0502 143.937 16 136.458 16H33.5417ZM72.5833 37.75L69.0833 50H56.25L52.75 37.75L58.5833 40.6667L62.6667 32.5L66.75 40.6667L72.5833 37.75ZM72.5833 37.75C71.6168 37.75 70.8333 36.9665 70.8333 36C70.8333 35.0335 71.6168 34.25 72.5833 34.25C73.5498 34.25 74.3333 35.0335 74.3333 36C74.3333 36.9665 73.5498 37.75 72.5833 37.75ZM62.6667 32.5C61.7002 32.5 60.9167 31.7165 60.9167 30.75C60.9167 29.7835 61.7002 29 62.6667 29C63.6332 29 64.4167 29.7835 64.4167 30.75C64.4167 31.7165 63.6332 32.5 62.6667 32.5ZM52.75 37.75C51.7835 37.75 51 36.9665 51 36C51 35.0335 51.7835 34.25 52.75 34.25C53.7165 34.25 54.5 35.0335 54.5 36C54.5 36.9665 53.7165 37.75 52.75 37.75ZM90.6584 50L97.1834 32.625H94.1834L89.0084 47.075L83.8584 32.625H80.8084L87.3584 50H90.6584ZM102.417 50V32.625H99.5668V50H102.417ZM117.684 40.3C118.1 39.5167 118.309 38.6833 118.309 37.8C118.309 36.8333 118.075 35.9583 117.609 35.175C117.159 34.3917 116.467 33.775 115.534 33.325C114.617 32.8583 113.492 32.625 112.159 32.625H106.159V50H109.009V42.95H112.159C113.592 42.95 114.767 42.7083 115.684 42.225C116.6 41.725 117.267 41.0833 117.684 40.3ZM114.584 39.9C114.05 40.3833 113.242 40.625 112.159 40.625H109.009V34.95H112.159C114.309 34.95 115.384 35.9 115.384 37.8C115.384 38.7 115.117 39.4 114.584 39.9Z" fill="#DAFF47"/>
</g>
<defs>
<filter id="filter0_d_6_151" x="0" y="0" width="170" height="90" filterUnits="userSpaceOnUse" color-interpolation-filters="sRGB">
<feFlood flood-opacity="0" result="BackgroundImageFix"/>
<feColorMatrix in="SourceAlpha" type="matrix" values="0 0 0 0 0 0 0 0 0 0 0 0 0 0 0 0 0 0 127 0" result="hardAlpha"/>
<feOffset dy="4"/>
<feGaussianBlur stdDeviation="10"/>
<feComposite in2="hardAlpha" operator="out"/>
<feColorMatrix type="matrix" values="0 0 0 0 0.854902 0 0 0 0 1 0 0 0 0 0.278431 0 0 0 0.11 0"/>
<feBlend mode="normal" in2="BackgroundImageFix" result="effect1_dropShadow_6_151"/>
<feBlend mode="normal" in="SourceGraphic" in2="effect1_dropShadow_6_151" result="shape"/>
</filter>
</defs>
</svg>
